<svg width="210" height="48" viewBox="0 0 210 48" fill="none" xmlns="http://www.w3.org/2000/svg">
<path d="M67.5954 31.088C66.7237 31.088 65.9191 30.9466 65.1815 30.6714C64.444 30.3961 63.8032 30.0019 63.2594 29.4886C62.7155 28.9828 62.2834 28.3728 61.9779 27.6661C61.6724 26.9594 61.5234 26.1932 61.5234 25.3526C61.5234 24.512 61.6724 23.7383 61.9779 23.0391C62.2834 22.3324 62.708 21.7298 63.2594 21.2165C63.8032 20.7107 64.4514 20.3164 65.1815 20.0338C65.9191 19.7585 66.7237 19.6172 67.5954 19.6172C68.6161 19.6172 69.5251 19.7957 70.3371 20.1453C71.1492 20.495 71.8123 21.0157 72.3487 21.7001L70.3595 23.4928C70.0019 23.0763 69.607 22.749 69.1749 22.5332C68.7428 22.3101 68.2734 22.1985 67.7519 22.1985C67.2974 22.1985 66.8802 22.2729 66.5077 22.4216C66.1277 22.5704 65.8074 22.7787 65.5392 23.0614C65.2709 23.3441 65.0623 23.6714 64.9059 24.0656C64.7569 24.4525 64.6749 24.8839 64.6749 25.36C64.6749 25.8361 64.7494 26.2601 64.9059 26.6544C65.0549 27.0412 65.2709 27.376 65.5392 27.6586C65.8074 27.9339 66.1277 28.1496 66.5077 28.2984C66.8877 28.4472 67.3049 28.5215 67.7519 28.5215C68.266 28.5215 68.7428 28.41 69.1749 28.1942C69.607 27.9711 70.0019 27.6512 70.3595 27.2197L72.3487 29.02C71.8123 29.7043 71.1418 30.225 70.3371 30.5821C69.5325 30.9392 68.6161 31.1177 67.5954 31.1177V31.088Z" fill="#161616"/>
<path d="M83.795 19.832H73.9531V22.3092H77.3281V30.8639H80.4051V22.3092H83.795V19.832Z" fill="#161616"/>
<path d="M93.455 30.8639H96.7033L91.8085 19.832H88.7315L83.8516 30.8639H87.0403L87.9045 28.7066H92.5759L93.4401 30.8639H93.455ZM88.8358 26.4229L90.2514 22.8969L91.6669 26.4229H88.8284H88.8358Z" fill="#161616"/>
<path d="M106.31 19.832H96.4609V22.3092H99.8359V30.8639H102.913V22.3092H106.31V19.832Z" fill="#161616"/>
<path d="M113.327 31.088C112.455 31.088 111.643 30.9466 110.89 30.6639C110.138 30.3813 109.49 29.9796 108.938 29.4588C108.394 28.9381 107.962 28.3281 107.649 27.6289C107.337 26.9296 107.188 26.1634 107.188 25.3377C107.188 24.512 107.344 23.7607 107.649 23.0688C107.962 22.377 108.387 21.767 108.938 21.2463C109.482 20.7256 110.13 20.3239 110.883 20.0412C111.628 19.7585 112.447 19.6172 113.327 19.6172C114.206 19.6172 115.025 19.7585 115.77 20.0412C116.515 20.3239 117.163 20.7256 117.715 21.2389C118.259 21.7521 118.691 22.3547 119.004 23.054C119.317 23.7458 119.466 24.512 119.466 25.3377C119.466 26.1634 119.317 26.9445 119.011 27.6438C118.706 28.343 118.281 28.953 117.722 29.4663C117.171 29.9796 116.523 30.3813 115.77 30.6639C115.018 30.9466 114.206 31.088 113.327 31.088ZM113.327 28.5067C113.744 28.5067 114.139 28.4323 114.504 28.2835C114.869 28.1347 115.182 27.9264 115.45 27.6438C115.718 27.3685 115.927 27.0338 116.083 26.6544C116.232 26.2676 116.314 25.8361 116.314 25.3526C116.314 24.869 116.24 24.4376 116.083 24.0508C115.934 23.6639 115.718 23.3366 115.45 23.0614C115.182 22.7862 114.869 22.5704 114.504 22.4216C114.139 22.2729 113.751 22.1985 113.327 22.1985C112.902 22.1985 112.514 22.2729 112.149 22.4216C111.784 22.5704 111.471 22.7787 111.196 23.0614C110.92 23.3366 110.711 23.6714 110.562 24.0508C110.413 24.4376 110.339 24.869 110.339 25.3526C110.339 25.8361 110.413 26.2676 110.562 26.6544C110.711 27.0412 110.92 27.3685 111.196 27.6438C111.471 27.919 111.784 28.1347 112.149 28.2835C112.514 28.4323 112.902 28.5067 113.327 28.5067Z" fill="#161616"/>
<path d="M130.803 21.7286C130.408 21.1111 129.842 20.6425 129.104 20.3152C128.367 19.9879 127.495 19.8242 126.482 19.8242H121.445V30.8561H124.567V27.9698H126.474C127.488 27.9698 128.359 27.8062 129.097 27.4714C129.834 27.1441 130.401 26.6754 130.795 26.0655C131.19 25.4629 131.384 24.7339 131.384 23.8859C131.384 23.0378 131.183 22.3311 130.795 21.7211L130.803 21.7286ZM127.763 25.0835C127.435 25.3588 126.951 25.5001 126.295 25.5001H124.574V22.2865H126.295C126.951 22.2865 127.435 22.4278 127.763 22.718C128.091 23.0081 128.255 23.3949 128.255 23.8933C128.255 24.3917 128.091 24.8083 127.763 25.0835Z" fill="#161616"/>
<path d="M143.193 31.088C142.321 31.088 141.517 30.9466 140.779 30.6714C140.042 30.3961 139.401 30.0019 138.857 29.4886C138.313 28.9828 137.881 28.3728 137.576 27.6661C137.27 26.9594 137.121 26.1932 137.121 25.3526C137.121 24.512 137.27 23.7383 137.576 23.0391C137.881 22.3324 138.306 21.7298 138.857 21.2165C139.401 20.7107 140.049 20.3164 140.779 20.0338C141.517 19.7585 142.321 19.6172 143.193 19.6172C144.214 19.6172 145.13 19.7957 145.935 20.1453C146.739 20.495 147.41 21.0157 147.946 21.7001L145.957 23.4928C145.6 23.0763 145.205 22.749 144.773 22.5332C144.34 22.3101 143.871 22.1985 143.35 22.1985C142.895 22.1985 142.478 22.2729 142.105 22.4216C141.725 22.5704 141.405 22.7787 141.137 23.0614C140.869 23.3366 140.66 23.6714 140.504 24.0656C140.355 24.4525 140.273 24.8839 140.273 25.36C140.273 25.8361 140.347 26.2601 140.504 26.6544C140.653 27.0412 140.869 27.376 141.137 27.6586C141.405 27.9339 141.725 28.1496 142.105 28.2984C142.485 28.4472 142.903 28.5215 143.35 28.5215C143.864 28.5215 144.34 28.41 144.773 28.1942C145.205 27.9711 145.6 27.6512 145.957 27.2197L147.946 29.02C147.41 29.7043 146.739 30.225 145.935 30.5821C145.13 30.9392 144.214 31.1177 143.193 31.1177V31.088Z" fill="#161616"/>
<path d="M153.1 28.4388V26.4155H158.01V24.102H153.1V22.2571H158.673V19.832H150.023V30.8639H158.874V28.4388H153.1Z" fill="#161616"/>
<path d="M170.701 21.7286C170.306 21.1111 169.74 20.6425 169.003 20.3152C168.265 19.9879 167.393 19.8242 166.38 19.8242H161.344V30.8561H164.465V27.9698H166.373C167.386 27.9698 168.258 27.8062 168.995 27.4714C169.733 27.1441 170.299 26.6754 170.694 26.0655C171.089 25.4555 171.282 24.7339 171.282 23.8859C171.282 23.0378 171.081 22.3311 170.694 21.7211L170.701 21.7286ZM167.662 25.0835C167.334 25.3588 166.85 25.5001 166.194 25.5001H164.473V22.2865H166.194C166.85 22.2865 167.334 22.4278 167.662 22.718C167.989 23.0081 168.153 23.3949 168.153 23.8933C168.153 24.3917 167.989 24.8083 167.662 25.0835Z" fill="#161616"/>
<path d="M182.375 25.5596C182.1 25.3662 181.787 25.21 181.429 25.0909C181.593 25.0091 181.75 24.9124 181.899 24.8008C182.584 24.295 182.927 23.5883 182.927 22.6956C182.927 21.803 182.562 21.0739 181.831 20.5755C181.101 20.0771 180.081 19.8242 178.762 19.8242H173.383V30.8561H179.067C180.476 30.8561 181.556 30.5734 182.308 30.0155C183.061 29.4576 183.433 28.6839 183.433 27.7094C183.433 26.7349 183.083 26.058 182.383 25.5596H182.375ZM176.452 22.0708H178.456C178.889 22.0708 179.216 22.16 179.432 22.346C179.656 22.532 179.76 22.7998 179.76 23.1568C179.76 23.5139 179.649 23.7817 179.432 23.9602C179.209 24.1388 178.889 24.228 178.456 24.228H176.452V22.0708ZM179.932 28.3343C179.708 28.5277 179.358 28.6244 178.896 28.6244H176.452V26.3556H178.896C179.358 26.3556 179.701 26.4448 179.932 26.6308C180.155 26.8168 180.274 27.092 180.274 27.4714C180.274 27.8508 180.163 28.1335 179.932 28.3269V28.3343Z" fill="#161616"/>
<path d="M185.785 30.8639V19.832H188.862V26.3113L193.422 19.832H196.357V30.8639H193.28V24.3846L188.735 30.8639H185.785Z" fill="#161616"/>
<path d="M204.83 31.088C203.958 31.088 203.153 30.9466 202.416 30.6714C201.678 30.3961 201.038 30.0019 200.494 29.4886C199.95 28.9828 199.518 28.3728 199.212 27.6661C198.907 26.9594 198.758 26.1932 198.758 25.3526C198.758 24.512 198.907 23.7383 199.212 23.0391C199.518 22.3324 199.942 21.7298 200.494 21.2165C201.038 20.7107 201.686 20.3164 202.416 20.0338C203.153 19.7585 203.958 19.6172 204.83 19.6172C205.85 19.6172 206.767 19.7957 207.572 20.1453C208.376 20.495 209.047 21.0157 209.583 21.7001L207.594 23.4928C207.236 23.0763 206.841 22.749 206.409 22.5332C205.977 22.3101 205.508 22.1985 204.986 22.1985C204.532 22.1985 204.115 22.2729 203.742 22.4216C203.362 22.5704 203.042 22.7787 202.774 23.0614C202.505 23.3366 202.297 23.6714 202.14 24.0656C201.991 24.4525 201.909 24.8839 201.909 25.36C201.909 25.8361 201.984 26.2601 202.14 26.6544C202.289 27.0412 202.505 27.376 202.774 27.6586C203.042 27.9339 203.362 28.1496 203.742 28.2984C204.122 28.4472 204.539 28.5215 204.986 28.5215C205.5 28.5215 205.977 28.41 206.409 28.1942C206.841 27.9711 207.236 27.6512 207.594 27.2197L209.583 29.02C209.047 29.7043 208.376 30.225 207.572 30.5821C206.767 30.9392 205.85 31.1177 204.83 31.1177V31.088Z" fill="#161616"/>
<path d="M34.9833 27.87C32.658 28.8341 30.5044 29.4673 28.5848 29.7491C26.7069 30.0256 24.8992 30.0437 23.206 29.8033C23.0109 30.2221 22.8262 30.6511 22.6598 31.0828C22.0407 32.6879 21.5778 34.6083 21.2812 36.7898C25.2009 43.6237 34.0105 48.2089 41.3973 47.2526L41.5404 47.2345C41.8369 47.2009 42.1412 47.1518 42.4689 47.0846C45.1817 46.5108 47.5148 44.9264 49.0364 42.6234C50.571 40.3024 51.1042 37.529 50.5372 34.8099C49.9702 32.0908 48.3706 29.7542 46.0375 28.2319C43.2596 26.4174 39.7379 26.0297 36.6193 27.1902L36.3748 27.2807L34.9885 27.8726L34.9833 27.87Z" fill="#161616"/>
<path d="M36.3948 26.6049C39.7007 25.3746 43.4305 25.7855 46.3774 27.7086C48.8536 29.324 50.5468 31.8001 51.1476 34.6821C51.7485 37.564 51.184 40.5054 49.5584 42.9634C47.9458 45.4059 45.4749 47.086 42.5956 47.6934C42.5097 47.7115 42.4239 47.727 42.3381 47.7425L41.9401 47.8097C41.8257 47.8278 41.7112 47.8407 41.5994 47.8536L41.5084 47.8666C33.8458 48.8746 24.7008 44.1033 20.6848 37.0057L20.6328 36.9152L20.6458 36.8118C20.9475 34.5373 21.4261 32.5342 22.0738 30.8593C22.274 30.3398 22.4977 29.8254 22.737 29.3266L22.8385 29.1172L23.0699 29.1534C24.7658 29.4196 26.5917 29.4119 28.4904 29.1327C30.3553 28.8587 32.4517 28.2436 34.7224 27.3028L36.3948 26.6049ZM34.9825 27.8714C32.6572 28.8355 30.5036 29.4687 28.584 29.7505C26.7061 30.027 24.8984 30.0451 23.2052 29.8047C23.0101 30.2235 22.8254 30.6525 22.659 31.0842C22.0399 32.6893 21.577 34.6097 21.2805 36.7912C25.2002 43.6251 34.0097 48.2103 41.3965 47.254L41.5396 47.2359C41.8361 47.2023 42.1404 47.1532 42.4681 47.086C45.181 46.5122 47.514 44.9278 49.0356 42.6248C50.5702 40.3038 51.1034 37.5304 50.5364 34.8113C49.9694 32.0922 48.3698 29.7556 46.0367 28.2333C43.2588 26.4188 39.7371 26.0311 36.6185 27.1916L34.9877 27.874L34.9825 27.8714Z" fill="#F7B6A0"/>
<path d="M32.941 30.9076C32.2491 31.8071 31.7289 32.8125 31.3934 33.9007C30.6469 36.3174 30.881 38.884 32.054 41.1249C33.6822 44.2369 36.8841 46.1987 40.4058 46.2426C41.9742 46.2633 43.5426 45.8885 44.9419 45.1596C47.634 43.7561 49.5145 41.1275 49.9696 38.1267C50.0841 37.3745 50.1075 36.612 50.0399 35.8625C49.928 34.6115 49.5743 33.4122 48.9917 32.2982C47.3635 29.1862 44.1642 27.2244 40.6399 27.1805C39.0715 27.1598 37.5031 27.5346 36.1038 28.2635C34.8579 28.9122 33.7941 29.804 32.9436 30.9128L32.941 30.9076Z" fill="#D64212"/>
<path d="M40.6378 27.1735C44.1595 27.22 47.3613 29.1792 48.9895 32.2912C49.5748 33.4052 49.9259 34.6045 50.0377 35.8555C50.1054 36.6076 50.0794 37.3675 49.9675 38.1197C49.5123 41.1205 47.6318 43.7517 44.9398 45.1526C43.5405 45.8815 41.9721 46.2563 40.4037 46.2356C36.8819 46.1891 33.6801 44.2299 32.0519 41.1179C30.8788 38.877 30.6448 36.313 31.3912 33.8937C31.7294 32.8055 32.2496 31.8001 32.9388 30.9006C33.7894 29.7918 34.8532 28.9001 36.099 28.2513C37.4984 27.5224 39.0668 27.1476 40.6352 27.1683M40.6508 25.876C38.9133 25.8527 37.1446 26.2482 35.4956 27.1063C34.0443 27.861 32.8374 28.9001 31.9036 30.1174C31.1155 31.141 30.5251 32.2938 30.1454 33.5112C29.3313 36.1424 29.5159 39.0786 30.8945 41.7124C32.8088 45.3671 36.5204 47.4762 40.3829 47.5254C42.1203 47.5486 43.889 47.1532 45.538 46.295C48.732 44.6305 50.7478 41.6064 51.2498 38.3083C51.3772 37.4631 51.4085 36.5999 51.3304 35.7366C51.2082 34.3615 50.8206 32.9865 50.1392 31.6889C48.2274 28.0342 44.5132 25.9251 40.6508 25.876Z" fill="#F7B6A0"/>
<path d="M21.6316 36.862C21.9385 34.3781 22.4509 32.2044 23.1558 30.4054C23.8425 28.6478 24.7216 27.0789 25.7698 25.7349C25.4993 25.3575 25.2158 24.9879 24.9193 24.6312C23.8216 23.3027 22.3729 21.9535 20.6094 20.6172C12.6946 20.6224 4.32724 25.9597 1.50777 32.8143L1.45314 32.9462C1.3361 33.2201 1.22946 33.507 1.12542 33.8224C0.2853 36.4484 0.516789 39.2476 1.77827 41.7005C3.04755 44.1741 5.21157 46.0066 7.86978 46.8622C10.528 47.7177 13.3605 47.4928 15.8496 46.2289C18.8095 44.7272 20.8929 41.8789 21.4209 38.6092L21.4626 38.3533L21.629 36.862H21.6316Z" fill="#161616"/>
<path d="M22.0372 38.7056C21.478 42.1691 19.2723 45.188 16.1329 46.7802C13.4955 48.1191 10.4914 48.3569 7.6745 47.4496C4.85763 46.5424 2.56356 44.6013 1.21885 41.9804C-0.118061 39.3802 -0.365155 36.413 0.526984 33.6293C0.552994 33.5466 0.581605 33.4639 0.610216 33.3837L0.748068 33.0064C0.789684 32.8978 0.833901 32.7944 0.878118 32.6885L0.911931 32.6032C3.81984 25.4875 12.5175 19.9485 20.7133 19.9924H20.8173L20.9005 20.0545C22.7394 21.4399 24.2532 22.8459 25.4002 24.2313C25.754 24.6604 26.0947 25.1076 26.412 25.5625L26.5447 25.7537L26.399 25.9347C25.3274 27.2684 24.4301 28.8476 23.7356 30.6259C23.0516 32.3705 22.5522 34.4874 22.253 36.9118L22.0372 38.7004V38.7056ZM21.6288 36.8601C21.9357 34.3763 22.4481 32.2025 23.153 30.4036C23.8397 28.646 24.7188 27.0771 25.767 25.733C25.4965 25.3557 25.213 24.9861 24.9165 24.6294C23.8188 23.3009 22.3701 21.9516 20.6066 20.6154C12.6918 20.6205 4.32443 25.9579 1.50496 32.8125L1.45034 32.9443C1.33329 33.2183 1.22665 33.5052 1.12261 33.8206C0.282491 36.4466 0.513979 39.2458 1.77546 41.6987C3.04474 44.1722 5.20877 46.0048 7.86698 46.8603C10.5252 47.7159 13.3577 47.491 15.8468 46.2271C18.8067 44.7254 20.8901 41.877 21.4181 38.6074L21.6288 36.8601Z" fill="#F7B6A0"/>
<path d="M3.52881 31.2142C2.83435 32.1111 2.31155 33.114 1.97082 34.1995C1.21393 36.6136 1.44022 39.1802 2.60546 41.4237C4.22327 44.5409 7.41729 46.513 10.939 46.5699C12.5048 46.5957 14.0758 46.2261 15.4778 45.5024C18.175 44.1092 20.0633 41.4858 20.5289 38.4849C20.6459 37.7328 20.6719 36.9703 20.6069 36.2208C20.5003 34.9698 20.1517 33.7679 19.5691 32.6513C17.9513 29.5342 14.7573 27.562 11.2355 27.5052C9.66715 27.4793 8.09875 27.8489 6.69421 28.5727C5.44574 29.2162 4.37933 30.1054 3.52361 31.2116L3.52881 31.2142Z" fill="#D64212"/>
<path d="M11.2431 27.5111C14.7648 27.568 17.9588 29.5401 19.5767 32.6572C20.1567 33.7738 20.5052 34.9757 20.6145 36.2267C20.6795 36.9788 20.6509 37.7387 20.5364 38.4909C20.0709 41.4917 18.1825 44.1152 15.4853 45.5083C14.0834 46.232 12.5124 46.6016 10.9466 46.5758C7.42484 46.5189 4.23083 44.5468 2.61301 41.4297C1.44777 39.1861 1.22408 36.6195 1.97837 34.2054C2.3191 33.1199 2.8445 32.1144 3.53636 31.2201C4.39209 30.1139 5.45849 29.2273 6.70697 28.5812C8.1089 27.8574 9.6799 27.4878 11.2483 27.5137M11.2691 26.2213C9.53164 26.1929 7.76037 26.5806 6.10874 27.4336C4.65479 28.1857 3.44533 29.2196 2.50637 30.4318C1.71567 31.4527 1.12004 32.6029 0.737697 33.8203C-0.0842162 36.449 0.0900501 39.3852 1.45817 42.0216C3.35949 45.6841 7.0633 47.8035 10.9284 47.8681C12.6658 47.8966 14.4371 47.5089 16.0887 46.6559C19.288 45.0043 21.3141 41.9854 21.8265 38.6899C21.9566 37.8447 21.9904 36.9814 21.915 36.1181C21.7953 34.7431 21.413 33.368 20.7367 32.0653C18.838 28.4028 15.1316 26.2808 11.2691 26.2188V26.2213Z" fill="#F7B6A0"/>
<path d="M19.7681 20.0793C21.7605 21.612 23.3757 23.1603 24.5721 24.6827C25.74 26.1689 26.6477 27.7223 27.2746 29.3041C27.7375 29.2653 28.2031 29.211 28.6635 29.1438C30.3749 28.888 32.2815 28.34 34.3388 27.5155C38.3834 20.7539 38.0452 10.8778 33.5611 4.96663L33.4753 4.85291C33.2984 4.61253 33.106 4.37474 32.8849 4.12661C31.0434 2.06661 28.5048 0.831126 25.7374 0.655367C22.9491 0.474439 20.2571 1.38683 18.1581 3.21938C16.0591 5.05193 14.8054 7.58751 14.6233 10.3583C14.4075 13.6564 15.8068 16.8898 18.3636 19.0118L18.5638 19.1799L19.7681 20.0845V20.0793Z" fill="#161616"/>
<path d="M17.9636 19.484C15.2533 17.2353 13.7708 13.808 13.9997 10.3135C14.1895 7.37731 15.5212 4.68923 17.7451 2.74812C19.9689 0.807019 22.8222 -0.159655 25.7769 0.0316118C28.7083 0.21771 31.4003 1.52556 33.3536 3.71221C33.4135 3.77941 33.4681 3.84403 33.5253 3.90865L33.7802 4.21881C33.853 4.30928 33.9206 4.39974 33.9883 4.49021L34.0455 4.56258C38.7117 10.6857 39.0524 20.9444 34.8258 27.9204L34.7712 28.0083L34.6749 28.0471C32.5369 28.9104 30.5472 29.4842 28.7603 29.753C28.2089 29.8357 27.6471 29.8977 27.0904 29.9365L26.8564 29.952L26.7731 29.7349C26.1671 28.1375 25.262 26.5661 24.0785 25.0592C22.9185 23.5833 21.3449 22.0739 19.3993 20.5773L17.961 19.4788L17.9636 19.484ZM19.7687 20.0785C21.761 21.6112 23.3762 23.1594 24.5727 24.6818C25.7405 26.168 26.6483 27.7214 27.2751 29.3032C27.7381 29.2645 28.2037 29.2102 28.664 29.143C30.3755 28.8871 32.282 28.3392 34.3394 27.5146C38.3839 20.7531 38.0458 10.877 33.5617 4.96579L33.4759 4.85206C33.299 4.61169 33.1065 4.37389 32.8855 4.12576C31.044 2.06576 28.5054 0.830282 25.7379 0.654523C22.9497 0.473594 20.2576 1.38599 18.1586 3.21854C16.0597 5.05108 14.806 7.58667 14.6239 10.3575C14.408 13.6555 15.8074 16.889 18.3641 19.011L19.7687 20.0837V20.0785Z" fill="#F7B6A0"/>
<path d="M17.2535 5.03262C16.5616 5.9321 16.0414 6.93754 15.7059 8.0257C14.9594 10.4424 15.1935 13.009 16.3665 15.2499C17.9947 18.3619 21.1966 20.3237 24.7183 20.3676C26.2867 20.3883 27.8551 20.0135 29.2544 19.2846C31.9465 17.8811 33.827 15.2525 34.2821 12.2517C34.3966 11.4995 34.42 10.737 34.3524 9.98748C34.2405 8.73649 33.8868 7.53719 33.3042 6.42319C31.676 3.31122 28.4767 1.34944 24.9524 1.3055C23.384 1.28482 21.8156 1.6596 20.4163 2.38848C19.1704 3.03724 18.1066 3.92896 17.2561 5.03779L17.2535 5.03262Z" fill="#D64212"/>
<path d="M24.9503 1.29848C28.472 1.34501 31.6738 3.3042 33.302 6.41617C33.8873 7.53018 34.2384 8.72947 34.3502 9.98046C34.4179 10.7326 34.3919 11.4925 34.28 12.2447C33.8248 15.2455 31.9443 17.8767 29.2523 19.2776C27.853 20.0065 26.2846 20.3813 24.7162 20.3606C21.1944 20.3141 17.9926 18.3549 16.3644 15.2429C15.1913 13.002 14.9573 10.438 15.7037 8.01868C16.0419 6.93053 16.5621 5.92508 17.2513 5.02561C18.1019 3.91678 19.1657 3.02506 20.4115 2.3763C21.8109 1.64742 23.3793 1.27264 24.9477 1.29331M24.9633 0.00096832C23.2258 -0.0222939 21.4571 0.373164 19.8081 1.23128C18.3568 1.98601 17.1499 3.02506 16.2161 4.24245C15.428 5.26599 14.8376 6.41876 14.4579 7.63615C13.6438 10.2674 13.8284 13.2036 15.207 15.8374C17.1213 19.4921 20.8329 21.6012 24.6954 21.6503C26.4328 21.6736 28.2015 21.2782 29.8505 20.42C33.0445 18.7555 35.0603 15.7314 35.5623 12.4333C35.6897 11.5881 35.721 10.7249 35.6429 9.86157C35.5207 8.48651 35.1331 7.11146 34.4517 5.81394C32.5425 2.16694 28.8283 0.0552468 24.9659 0.0061377L24.9633 0.00096832Z" fill="#F7B6A0"/>
</svg>
